PathFileType  4	(X/Y/Z) C:\Users\antoi\Documents\MyRepositories\mobilecap\ResultsAnalysis
DataRate	CameraRate	NumFrames	NumMarkers	Units	OrigDataRate	OrigDataStartFrame	OrigNumFrames
100.0	100.0	4	51	mm	100.0	1029	1371
Frame#	Time	r_knee			r_shank_antsup			r_ankle			r_calc			r_5meta			r_toe			L_knee			L_shank_antsup			L_ankle			L_calc			L_5meta			L_toe			r_sh2			r_sh3			r_sh4			L_sh2			L_sh3			r_thigh1			r_thigh2			r_thigh3			r_thigh4			r_thigh5			L_thigh1			L_thigh2			L_thigh3			L_thigh4			r.ASIS			r.PSIS			L.ASIS			L.PSIS			C7			R_Shoulder			L_Shoulder			R_Sternum			L_Sternum			R_humerus			R_elbow_med			R_elbow_lat			R_forearm			R_wrist_radius			R_wrist_ulna			L_humerus			L_elbow_med			L_elbow_lat			L_forearm			L_wrist_radius			L_wrist_ulna			R_HJC			L_HJC			R_HJC_reg			L_HJC_reg			
		X1	Y1	Z1	X2	Y2	Z2	X3	Y3	Z3	X4	Y4	Z4	X5	Y5	Z5	X6	Y6	Z6	X7	Y7	Z7	X8	Y8	Z8	X9	Y9	Z9	X10	Y10	Z10	X11	Y11	Z11	X12	Y12	Z12	X13	Y13	Z13	X14	Y14	Z14	X15	Y15	Z15	X16	Y16	Z16	X17	Y17	Z17	X18	Y18	Z18	X19	Y19	Z19	X20	Y20	Z20	X21	Y21	Z21	X22	Y22	Z22	X23	Y23	Z23	X24	Y24	Z24	X25	Y25	Z25	X26	Y26	Z26	X27	Y27	Z27	X28	Y28	Z28	X29	Y29	Z29	X30	Y30	Z30	X31	Y31	Z31	X32	Y32	Z32	X33	Y33	Z33	X34	Y34	Z34	X35	Y35	Z35	X36	Y36	Z36	X37	Y37	Z37	X38	Y38	Z38	X39	Y39	Z39	X40	Y40	Z40	X41	Y41	Z41	X42	Y42	Z42	X43	Y43	Z43	X44	Y44	Z44	X45	Y45	Z45	X46	Y46	Z46	X47	Y47	Z47	X48	Y48	Z48	X49	Y49	Z49	X50	Y50	Z50	X51	Y51	Z51	

1029	10.28000000	-162.65924	473.67327	-414.97753	-103.38110	431.78356	-418.97833	-247.28075	97.24052	-427.49305	-308.69003	56.80840	-475.62155	-128.50892	41.26562	-388.27869	-87.22879	65.60351	-440.61641	-158.76794	460.69458	-788.97375	-126.36610	386.61037	-796.58292	-262.16662	97.06030	-753.73571	-324.20665	58.23982	-702.44167	-149.11459	41.72914	-791.00426	-102.44776	60.72488	-740.14099	-126.10735	318.64312	-431.74834	-173.52387	440.87549	-387.04698	-193.66941	326.56480	-380.14270	-209.83522	416.52782	-806.19719	-242.38660	296.47058	-796.62250	-431.17920	574.15911	-510.07524	-322.74897	580.37141	-489.08466	-310.84923	564.72965	-425.46176	-448.65192	529.34140	-411.41857	-335.22275	523.02688	-395.27967	-460.05893	546.61560	-791.62724	-320.35459	520.00702	-810.14474	-481.18485	435.99665	-804.86538	-346.76002	409.09145	-784.41352	-494.03265	596.08590	-491.02180	-679.73095	574.12178	-569.57298	-480.52264	577.74565	-722.21412	-678.11250	574.16761	-666.27881	-498.43644	1038.09445	-631.74234	-436.15772	997.59811	-468.29904	-424.69425	982.11340	-779.91162	-407.87433	923.54633	-601.91862	-408.76376	921.22173	-639.51143	-488.35808	793.41062	-348.74150	-557.24123	689.43746	-369.72647	-518.41786	711.78931	-311.24563	-391.22020	737.57086	-363.13966	-322.77671	776.95291	-423.64988	-303.67632	739.84468	-406.18046	-458.02102	772.75245	-885.59957	-510.39525	651.97357	-852.42849	-478.67164	667.60591	-914.97767	-353.22637	713.65395	-851.80714	-289.46256	770.04197	-790.47727	-268.40569	730.58781	-788.24742	-541.28670	496.09083	-520.09504	-546.65682	490.01831	-710.59322	-534.95031	500.28342	-523.48101	-532.38653	500.35375	-676.78545	
1030	10.29000000	-162.43885	473.75745	-415.13607	-103.17484	431.84094	-419.16778	-247.05756	97.35261	-427.51990	-308.56357	56.94796	-475.69456	-128.39145	40.80092	-388.56317	-87.04659	65.13267	-440.72913	-158.50230	460.74521	-788.97018	-126.14579	386.61778	-796.31140	-262.10680	97.05609	-753.57510	-324.17841	58.27551	-702.41388	-149.11885	41.73223	-790.97812	-102.41616	60.67939	-740.13110	-125.80708	318.43502	-431.72652	-173.23165	441.12289	-387.03311	-193.47964	326.59110	-380.23383	-209.58373	416.66274	-805.94092	-243.05095	295.83581	-795.23303	-431.09972	574.03349	-509.94903	-322.68141	580.31049	-489.10405	-310.65695	564.58473	-425.52528	-448.67031	529.36970	-410.97201	-334.98984	522.83450	-395.41062	-459.87288	546.10825	-791.32439	-320.16567	519.67515	-810.05944	-480.80926	435.35360	-804.43982	-346.42875	408.64830	-783.73023	-495.03801	596.18341	-490.77116	-680.62977	572.52440	-569.73407	-482.07610	577.65936	-721.86402	-678.79924	572.68717	-666.53413	-503.59176	1038.36260	-632.32439	-441.67257	998.30012	-468.22263	-430.57662	981.98066	-780.59840	-412.43845	923.96319	-602.20330	-411.36514	921.27298	-639.49350	-494.07434	793.39313	-349.68781	-562.48614	689.36193	-371.27473	-524.08995	711.59678	-312.60412	-396.64376	737.99261	-363.65114	-328.03070	777.96027	-423.47706	-308.84085	740.75925	-406.32649	-463.93094	772.29951	-885.69242	-515.70213	651.61666	-852.23069	-484.21580	666.96728	-914.50271	-358.63358	713.41351	-851.80534	-294.63298	770.04977	-791.20193	-273.48050	730.45676	-788.90449	-541.69250	495.72809	-519.97119	-546.92110	489.47418	-710.46828	-535.51624	499.80484	-523.41036	-532.61882	500.05964	-676.63225	
1031	10.30000000	-162.14121	473.71330	-415.38431	-102.92304	431.92514	-419.41495	-246.84658	97.40283	-427.56330	-308.44636	57.07925	-475.77192	-128.26151	40.66798	-388.62961	-86.87329	64.74274	-440.86350	-158.24684	460.74278	-788.94428	-125.89085	386.62431	-796.13243	-262.04808	97.04871	-753.46146	-324.14639	58.30298	-702.39085	-149.09694	41.71459	-790.95582	-102.39323	60.62835	-740.10289	-125.49773	318.38648	-431.78496	-172.88948	441.18806	-387.10464	-193.25843	326.66676	-380.26650	-209.36795	416.80407	-805.86552	-243.21117	295.71800	-794.80047	-431.01337	573.88558	-509.97545	-322.55837	580.30210	-489.08761	-310.45514	564.47455	-425.49096	-448.50873	529.27726	-410.77529	-334.67320	522.65168	-395.52631	-459.65965	545.74292	-791.15848	-320.01780	519.50372	-810.05092	-480.52882	434.89452	-804.16299	-346.14483	408.38221	-783.28041	-495.86476	596.35084	-490.50896	-681.39651	571.00203	-569.75479	-483.95962	577.86836	-721.94163	-679.55770	570.93045	-666.39505	-508.64113	1038.61540	-632.86069	-446.96707	999.04211	-468.36426	-436.10911	982.04046	-781.37204	-416.80378	924.58697	-602.43361	-414.77258	921.53092	-639.58034	-499.62332	793.46187	-350.71078	-567.59196	689.43515	-372.89162	-529.66362	711.42108	-314.09827	-401.92623	738.41743	-364.31047	-333.10987	778.95884	-423.37052	-314.00114	741.62276	-406.63113	-469.64599	772.00027	-885.59951	-520.90557	651.41049	-851.93131	-489.71301	666.45479	-913.88203	-363.85991	713.13398	-851.79800	-299.62068	769.91525	-791.77541	-278.41024	730.42825	-789.51437	-541.77138	495.44959	-519.94660	-547.31010	489.07021	-710.43083	-536.07873	499.76916	-523.00671	-533.15965	499.65316	-676.41049	
1032	10.31000000	-161.77161	473.66969	-415.69420	-102.65348	432.00441	-419.68755	-246.67549	97.39935	-427.62281	-308.37504	57.16306	-475.81710	-128.19941	40.69131	-388.61579	-86.73885	64.50719	-440.95705	-157.95076	460.64725	-788.78853	-125.64867	386.62018	-796.00121	-261.99243	97.07007	-753.44774	-324.11922	58.32348	-702.37708	-149.07612	41.70146	-790.94469	-102.38979	60.56064	-740.04686	-125.31917	318.61622	-432.00590	-172.55840	441.05997	-387.36638	-192.96861	326.69745	-380.35560	-209.16025	416.89706	-805.77378	-242.74769	296.17984	-795.28534	-430.95877	573.67747	-510.21820	-322.40112	580.27485	-489.05716	-310.23556	564.35904	-425.45897	-448.29578	529.14113	-410.77925	-334.36760	522.50957	-395.53257	-459.46934	545.53642	-791.05034	-319.86795	519.38052	-809.94974	-480.26573	434.72684	-804.02529	-345.88070	408.32805	-783.21762	-496.51306	596.64009	-490.23080	-682.08472	569.59911	-569.59005	-483.90864	579.16570	-721.45085	-680.35896	569.25567	-666.22445	-513.66294	1038.85908	-633.36470	-452.08995	999.69519	-468.85162	-441.41738	982.36808	-782.15536	-421.00770	925.34325	-602.67977	-419.18335	922.27019	-639.94236	-504.86975	793.57511	-351.75666	-572.54207	689.54886	-375.01426	-535.06166	711.28543	-315.70499	-407.05950	738.92439	-365.09528	-338.04737	779.99239	-423.40215	-318.98636	742.56950	-406.86437	-475.15550	771.80386	-885.35333	-525.91636	651.11280	-851.06750	-495.17008	666.09514	-913.16424	-368.92624	712.92272	-852.04214	-304.43615	769.73924	-792.27541	-283.18693	730.43349	-790.05548	-541.38829	495.36944	-519.83274	-546.64191	489.41775	-710.33657	-535.77146	500.50000	-522.39483	-533.03410	499.95586	-675.64141	
